G04 #@! TF.FileFunction,Copper,L1,Top,Signal*
%FSLAX46Y46*%
G04 Gerber Fmt 4.6, Leading zero omitted, Abs format (unit mm)*
G04 Created by KiCad (PCBNEW 4.0.6) date Wed Sep 20 09:51:15 2017*
%MOMM*%
%LPD*%
G01*
G04 APERTURE LIST*
%ADD10C,0.100000*%
%ADD11C,1.778000*%
%ADD12R,1.778000X1.778000*%
%ADD13R,2.750000X1.000000*%
%ADD14C,0.250000*%
G04 APERTURE END LIST*
D10*
D11*
X133350000Y-124460000D03*
X133350000Y-127000000D03*
X133350000Y-132080000D03*
X133350000Y-129540000D03*
X133350000Y-119380000D03*
X133350000Y-121920000D03*
X133350000Y-116840000D03*
X133350000Y-114300000D03*
X133350000Y-109220000D03*
X133350000Y-111760000D03*
X133350000Y-106680000D03*
X133350000Y-104140000D03*
X133350000Y-99060000D03*
X133350000Y-101600000D03*
X133350000Y-96520000D03*
X133350000Y-93980000D03*
D12*
X133350000Y-83820000D03*
D11*
X133350000Y-86360000D03*
X133350000Y-88900000D03*
X133350000Y-91440000D03*
D13*
X139115000Y-88950000D03*
X145365000Y-88950000D03*
X139115000Y-90950000D03*
X145365000Y-90950000D03*
X139115000Y-92950000D03*
X145365000Y-92950000D03*
X139115000Y-94950000D03*
X145365000Y-94950000D03*
X139115000Y-96950000D03*
X145365000Y-96950000D03*
X139115000Y-98950000D03*
X145365000Y-98950000D03*
X139115000Y-100950000D03*
X145365000Y-100950000D03*
X139115000Y-102950000D03*
X145365000Y-102950000D03*
X139115000Y-104950000D03*
X145365000Y-104950000D03*
X139115000Y-106950000D03*
X145365000Y-106950000D03*
X139115000Y-108950000D03*
X145365000Y-108950000D03*
X139115000Y-110950000D03*
X145365000Y-110950000D03*
X139115000Y-112950000D03*
X145365000Y-112950000D03*
X139115000Y-114950000D03*
X145365000Y-114950000D03*
X139115000Y-116950000D03*
X145365000Y-116950000D03*
X139115000Y-118950000D03*
X145365000Y-118950000D03*
X139115000Y-120950000D03*
X145365000Y-120950000D03*
X139115000Y-122950000D03*
X145365000Y-122950000D03*
X139115000Y-124950000D03*
X145365000Y-124950000D03*
X139115000Y-126950000D03*
X145365000Y-126950000D03*
D11*
X151130000Y-124460000D03*
X151130000Y-127000000D03*
X151130000Y-132080000D03*
X151130000Y-129540000D03*
X151130000Y-119380000D03*
X151130000Y-121920000D03*
X151130000Y-116840000D03*
X151130000Y-114300000D03*
X151130000Y-109220000D03*
X151130000Y-111760000D03*
X151130000Y-106680000D03*
X151130000Y-104140000D03*
X151130000Y-99060000D03*
X151130000Y-101600000D03*
X151130000Y-96520000D03*
X151130000Y-93980000D03*
D12*
X151130000Y-83820000D03*
D11*
X151130000Y-86360000D03*
X151130000Y-88900000D03*
X151130000Y-91440000D03*
D14*
X147065300Y-128015300D02*
X147065300Y-126950000D01*
X151130000Y-132080000D02*
X147065300Y-128015300D01*
X145365000Y-126950000D02*
X147065300Y-126950000D01*
X137414700Y-128015300D02*
X137414700Y-126950000D01*
X133350000Y-132080000D02*
X137414700Y-128015300D01*
X139115000Y-126950000D02*
X137414700Y-126950000D01*
X147620000Y-120950000D02*
X145365000Y-120950000D01*
X151130000Y-124460000D02*
X147620000Y-120950000D01*
X147080000Y-122950000D02*
X145365000Y-122950000D01*
X151130000Y-127000000D02*
X147080000Y-122950000D01*
X137414700Y-125475300D02*
X137414700Y-124950000D01*
X133350000Y-129540000D02*
X137414700Y-125475300D01*
X139115000Y-124950000D02*
X137414700Y-124950000D01*
X147065300Y-125475300D02*
X147065300Y-124950000D01*
X151130000Y-129540000D02*
X147065300Y-125475300D01*
X145365000Y-124950000D02*
X147065300Y-124950000D01*
X136860000Y-120950000D02*
X139115000Y-120950000D01*
X133350000Y-124460000D02*
X136860000Y-120950000D01*
X147335300Y-109220000D02*
X147065300Y-108950000D01*
X151130000Y-109220000D02*
X147335300Y-109220000D01*
X145365000Y-108950000D02*
X147065300Y-108950000D01*
X137144700Y-109220000D02*
X137414700Y-108950000D01*
X133350000Y-109220000D02*
X137144700Y-109220000D01*
X139115000Y-108950000D02*
X137414700Y-108950000D01*
X136604700Y-111760000D02*
X137414700Y-110950000D01*
X133350000Y-111760000D02*
X136604700Y-111760000D01*
X139115000Y-110950000D02*
X137414700Y-110950000D01*
X147875300Y-111760000D02*
X147065300Y-110950000D01*
X151130000Y-111760000D02*
X147875300Y-111760000D01*
X145365000Y-110950000D02*
X147065300Y-110950000D01*
X134700000Y-112950000D02*
X139115000Y-112950000D01*
X133350000Y-114300000D02*
X134700000Y-112950000D01*
X149780000Y-112950000D02*
X145365000Y-112950000D01*
X151130000Y-114300000D02*
X149780000Y-112950000D01*
X148700000Y-116950000D02*
X145365000Y-116950000D01*
X151130000Y-119380000D02*
X148700000Y-116950000D01*
X135780000Y-116950000D02*
X139115000Y-116950000D01*
X133350000Y-119380000D02*
X135780000Y-116950000D01*
X149240000Y-114950000D02*
X145365000Y-114950000D01*
X151130000Y-116840000D02*
X149240000Y-114950000D01*
X135240000Y-114950000D02*
X139115000Y-114950000D01*
X133350000Y-116840000D02*
X135240000Y-114950000D01*
X136320000Y-118950000D02*
X139115000Y-118950000D01*
X133350000Y-121920000D02*
X136320000Y-118950000D01*
X148160000Y-118950000D02*
X145365000Y-118950000D01*
X151130000Y-121920000D02*
X148160000Y-118950000D01*
X147335300Y-106680000D02*
X147065300Y-106950000D01*
X151130000Y-106680000D02*
X147335300Y-106680000D01*
X145365000Y-106950000D02*
X147065300Y-106950000D01*
X137144700Y-106680000D02*
X137414700Y-106950000D01*
X133350000Y-106680000D02*
X137144700Y-106680000D01*
X139115000Y-106950000D02*
X137414700Y-106950000D01*
X134700000Y-102950000D02*
X139115000Y-102950000D01*
X133350000Y-101600000D02*
X134700000Y-102950000D01*
X149780000Y-102950000D02*
X145365000Y-102950000D01*
X151130000Y-101600000D02*
X149780000Y-102950000D01*
X136604700Y-104140000D02*
X137414700Y-104950000D01*
X133350000Y-104140000D02*
X136604700Y-104140000D01*
X139115000Y-104950000D02*
X137414700Y-104950000D01*
X147875300Y-104140000D02*
X147065300Y-104950000D01*
X151130000Y-104140000D02*
X147875300Y-104140000D01*
X145365000Y-104950000D02*
X147065300Y-104950000D01*
X149240000Y-100950000D02*
X145365000Y-100950000D01*
X151130000Y-99060000D02*
X149240000Y-100950000D01*
X135240000Y-100950000D02*
X139115000Y-100950000D01*
X133350000Y-99060000D02*
X135240000Y-100950000D01*
X148700000Y-98950000D02*
X145365000Y-98950000D01*
X151130000Y-96520000D02*
X148700000Y-98950000D01*
X135780000Y-98950000D02*
X139115000Y-98950000D01*
X133350000Y-96520000D02*
X135780000Y-98950000D01*
X134564300Y-86099600D02*
X137414700Y-88950000D01*
X134564300Y-83820000D02*
X134564300Y-86099600D01*
X133350000Y-83820000D02*
X134564300Y-83820000D01*
X139115000Y-88950000D02*
X137414700Y-88950000D01*
X149915700Y-86099600D02*
X147065300Y-88950000D01*
X149915700Y-83820000D02*
X149915700Y-86099600D01*
X151130000Y-83820000D02*
X149915700Y-83820000D01*
X145365000Y-88950000D02*
X147065300Y-88950000D01*
X137414700Y-90424700D02*
X137414700Y-90950000D01*
X133350000Y-86360000D02*
X137414700Y-90424700D01*
X139115000Y-90950000D02*
X137414700Y-90950000D01*
X147065300Y-90424700D02*
X147065300Y-90950000D01*
X151130000Y-86360000D02*
X147065300Y-90424700D01*
X145365000Y-90950000D02*
X147065300Y-90950000D01*
X137400000Y-92950000D02*
X139115000Y-92950000D01*
X133350000Y-88900000D02*
X137400000Y-92950000D01*
X147080000Y-92950000D02*
X145365000Y-92950000D01*
X151130000Y-88900000D02*
X147080000Y-92950000D01*
X136860000Y-94950000D02*
X139115000Y-94950000D01*
X133350000Y-91440000D02*
X136860000Y-94950000D01*
X147620000Y-94950000D02*
X145365000Y-94950000D01*
X151130000Y-91440000D02*
X147620000Y-94950000D01*
X136320000Y-96950000D02*
X139115000Y-96950000D01*
X133350000Y-93980000D02*
X136320000Y-96950000D01*
X148160000Y-96950000D02*
X145365000Y-96950000D01*
X151130000Y-93980000D02*
X148160000Y-96950000D01*
X137400000Y-122950000D02*
X139115000Y-122950000D01*
X133350000Y-127000000D02*
X137400000Y-122950000D01*
M02*
