M48
;DRILL file {KiCad 4.0.6} date Wed Sep 20 09:51:09 2017
;FORMAT={-:-/ absolute / inch / decimal}
FMAT,2
INCH,TZ
T1C0.039
%
G90
G05
M72
T1
X5.25Y-3.3
X5.25Y-3.4
X5.25Y-3.5
X5.25Y-3.6
X5.25Y-3.7
X5.25Y-3.8
X5.25Y-3.9
X5.25Y-4.
X5.25Y-4.1
X5.25Y-4.2
X5.25Y-4.3
X5.25Y-4.4
X5.25Y-4.5
X5.25Y-4.6
X5.25Y-4.7
X5.25Y-4.8
X5.25Y-4.9
X5.25Y-5.
X5.25Y-5.1
X5.25Y-5.2
X5.95Y-3.3
X5.95Y-3.4
X5.95Y-3.5
X5.95Y-3.6
X5.95Y-3.7
X5.95Y-3.8
X5.95Y-3.9
X5.95Y-4.
X5.95Y-4.1
X5.95Y-4.2
X5.95Y-4.3
X5.95Y-4.4
X5.95Y-4.5
X5.95Y-4.6
X5.95Y-4.7
X5.95Y-4.8
X5.95Y-4.9
X5.95Y-5.
X5.95Y-5.1
X5.95Y-5.2
T0
M30
