G04 #@! TF.FileFunction,Copper,L2,Bot,Signal*
%FSLAX46Y46*%
G04 Gerber Fmt 4.6, Leading zero omitted, Abs format (unit mm)*
G04 Created by KiCad (PCBNEW 4.0.6) date Wed Sep 20 09:51:15 2017*
%MOMM*%
%LPD*%
G01*
G04 APERTURE LIST*
%ADD10C,0.100000*%
%ADD11C,1.778000*%
%ADD12R,1.778000X1.778000*%
G04 APERTURE END LIST*
D10*
D11*
X133350000Y-124460000D03*
X133350000Y-127000000D03*
X133350000Y-132080000D03*
X133350000Y-129540000D03*
X133350000Y-119380000D03*
X133350000Y-121920000D03*
X133350000Y-116840000D03*
X133350000Y-114300000D03*
X133350000Y-109220000D03*
X133350000Y-111760000D03*
X133350000Y-106680000D03*
X133350000Y-104140000D03*
X133350000Y-99060000D03*
X133350000Y-101600000D03*
X133350000Y-96520000D03*
X133350000Y-93980000D03*
D12*
X133350000Y-83820000D03*
D11*
X133350000Y-86360000D03*
X133350000Y-88900000D03*
X133350000Y-91440000D03*
X151130000Y-124460000D03*
X151130000Y-127000000D03*
X151130000Y-132080000D03*
X151130000Y-129540000D03*
X151130000Y-119380000D03*
X151130000Y-121920000D03*
X151130000Y-116840000D03*
X151130000Y-114300000D03*
X151130000Y-109220000D03*
X151130000Y-111760000D03*
X151130000Y-106680000D03*
X151130000Y-104140000D03*
X151130000Y-99060000D03*
X151130000Y-101600000D03*
X151130000Y-96520000D03*
X151130000Y-93980000D03*
D12*
X151130000Y-83820000D03*
D11*
X151130000Y-86360000D03*
X151130000Y-88900000D03*
X151130000Y-91440000D03*
M02*
