G04 #@! TF.FileFunction,Legend,Top*
%FSLAX46Y46*%
G04 Gerber Fmt 4.6, Leading zero omitted, Abs format (unit mm)*
G04 Created by KiCad (PCBNEW 4.0.6) date Wed Sep 20 09:51:15 2017*
%MOMM*%
%LPD*%
G01*
G04 APERTURE LIST*
%ADD10C,0.100000*%
%ADD11C,0.300000*%
%ADD12C,0.254000*%
%ADD13C,0.120000*%
%ADD14C,0.150000*%
G04 APERTURE END LIST*
D10*
D11*
X147447143Y-106001429D02*
X147518572Y-105930000D01*
X147661429Y-105858571D01*
X148018572Y-105858571D01*
X148161429Y-105930000D01*
X148232858Y-106001429D01*
X148304286Y-106144286D01*
X148304286Y-106287143D01*
X148232858Y-106501429D01*
X147375715Y-107358571D01*
X148304286Y-107358571D01*
X149232857Y-105858571D02*
X149375714Y-105858571D01*
X149518571Y-105930000D01*
X149590000Y-106001429D01*
X149661429Y-106144286D01*
X149732857Y-106430000D01*
X149732857Y-106787143D01*
X149661429Y-107072857D01*
X149590000Y-107215714D01*
X149518571Y-107287143D01*
X149375714Y-107358571D01*
X149232857Y-107358571D01*
X149090000Y-107287143D01*
X149018571Y-107215714D01*
X148947143Y-107072857D01*
X148875714Y-106787143D01*
X148875714Y-106430000D01*
X148947143Y-106144286D01*
X149018571Y-106001429D01*
X149090000Y-105930000D01*
X149232857Y-105858571D01*
X135604286Y-107358571D02*
X134747143Y-107358571D01*
X135175715Y-107358571D02*
X135175715Y-105858571D01*
X135032858Y-106072857D01*
X134890000Y-106215714D01*
X134747143Y-106287143D01*
X136318571Y-107358571D02*
X136604286Y-107358571D01*
X136747143Y-107287143D01*
X136818571Y-107215714D01*
X136961429Y-107001429D01*
X137032857Y-106715714D01*
X137032857Y-106144286D01*
X136961429Y-106001429D01*
X136890000Y-105930000D01*
X136747143Y-105858571D01*
X136461429Y-105858571D01*
X136318571Y-105930000D01*
X136247143Y-106001429D01*
X136175714Y-106144286D01*
X136175714Y-106501429D01*
X136247143Y-106644286D01*
X136318571Y-106715714D01*
X136461429Y-106787143D01*
X136747143Y-106787143D01*
X136890000Y-106715714D01*
X136961429Y-106644286D01*
X137032857Y-106501429D01*
X148304286Y-94658571D02*
X147447143Y-94658571D01*
X147875715Y-94658571D02*
X147875715Y-93158571D01*
X147732858Y-93372857D01*
X147590000Y-93515714D01*
X147447143Y-93587143D01*
X149232857Y-93158571D02*
X149375714Y-93158571D01*
X149518571Y-93230000D01*
X149590000Y-93301429D01*
X149661429Y-93444286D01*
X149732857Y-93730000D01*
X149732857Y-94087143D01*
X149661429Y-94372857D01*
X149590000Y-94515714D01*
X149518571Y-94587143D01*
X149375714Y-94658571D01*
X149232857Y-94658571D01*
X149090000Y-94587143D01*
X149018571Y-94515714D01*
X148947143Y-94372857D01*
X148875714Y-94087143D01*
X148875714Y-93730000D01*
X148947143Y-93444286D01*
X149018571Y-93301429D01*
X149090000Y-93230000D01*
X149232857Y-93158571D01*
X135604286Y-94658571D02*
X135890001Y-94658571D01*
X136032858Y-94587143D01*
X136104286Y-94515714D01*
X136247144Y-94301429D01*
X136318572Y-94015714D01*
X136318572Y-93444286D01*
X136247144Y-93301429D01*
X136175715Y-93230000D01*
X136032858Y-93158571D01*
X135747144Y-93158571D01*
X135604286Y-93230000D01*
X135532858Y-93301429D01*
X135461429Y-93444286D01*
X135461429Y-93801429D01*
X135532858Y-93944286D01*
X135604286Y-94015714D01*
X135747144Y-94087143D01*
X136032858Y-94087143D01*
X136175715Y-94015714D01*
X136247144Y-93944286D01*
X136318572Y-93801429D01*
X147375715Y-118558571D02*
X148304286Y-118558571D01*
X147804286Y-119130000D01*
X148018572Y-119130000D01*
X148161429Y-119201429D01*
X148232858Y-119272857D01*
X148304286Y-119415714D01*
X148304286Y-119772857D01*
X148232858Y-119915714D01*
X148161429Y-119987143D01*
X148018572Y-120058571D01*
X147590000Y-120058571D01*
X147447143Y-119987143D01*
X147375715Y-119915714D01*
X149232857Y-118558571D02*
X149375714Y-118558571D01*
X149518571Y-118630000D01*
X149590000Y-118701429D01*
X149661429Y-118844286D01*
X149732857Y-119130000D01*
X149732857Y-119487143D01*
X149661429Y-119772857D01*
X149590000Y-119915714D01*
X149518571Y-119987143D01*
X149375714Y-120058571D01*
X149232857Y-120058571D01*
X149090000Y-119987143D01*
X149018571Y-119915714D01*
X148947143Y-119772857D01*
X148875714Y-119487143D01*
X148875714Y-119130000D01*
X148947143Y-118844286D01*
X149018571Y-118701429D01*
X149090000Y-118630000D01*
X149232857Y-118558571D01*
X134747143Y-118701429D02*
X134818572Y-118630000D01*
X134961429Y-118558571D01*
X135318572Y-118558571D01*
X135461429Y-118630000D01*
X135532858Y-118701429D01*
X135604286Y-118844286D01*
X135604286Y-118987143D01*
X135532858Y-119201429D01*
X134675715Y-120058571D01*
X135604286Y-120058571D01*
X136318571Y-120058571D02*
X136604286Y-120058571D01*
X136747143Y-119987143D01*
X136818571Y-119915714D01*
X136961429Y-119701429D01*
X137032857Y-119415714D01*
X137032857Y-118844286D01*
X136961429Y-118701429D01*
X136890000Y-118630000D01*
X136747143Y-118558571D01*
X136461429Y-118558571D01*
X136318571Y-118630000D01*
X136247143Y-118701429D01*
X136175714Y-118844286D01*
X136175714Y-119201429D01*
X136247143Y-119344286D01*
X136318571Y-119415714D01*
X136461429Y-119487143D01*
X136747143Y-119487143D01*
X136890000Y-119415714D01*
X136961429Y-119344286D01*
X137032857Y-119201429D01*
X148161429Y-131758571D02*
X148161429Y-132758571D01*
X147804286Y-131187143D02*
X147447143Y-132258571D01*
X148375715Y-132258571D01*
X149232857Y-131258571D02*
X149375714Y-131258571D01*
X149518571Y-131330000D01*
X149590000Y-131401429D01*
X149661429Y-131544286D01*
X149732857Y-131830000D01*
X149732857Y-132187143D01*
X149661429Y-132472857D01*
X149590000Y-132615714D01*
X149518571Y-132687143D01*
X149375714Y-132758571D01*
X149232857Y-132758571D01*
X149090000Y-132687143D01*
X149018571Y-132615714D01*
X148947143Y-132472857D01*
X148875714Y-132187143D01*
X148875714Y-131830000D01*
X148947143Y-131544286D01*
X149018571Y-131401429D01*
X149090000Y-131330000D01*
X149232857Y-131258571D01*
X134675715Y-131258571D02*
X135604286Y-131258571D01*
X135104286Y-131830000D01*
X135318572Y-131830000D01*
X135461429Y-131901429D01*
X135532858Y-131972857D01*
X135604286Y-132115714D01*
X135604286Y-132472857D01*
X135532858Y-132615714D01*
X135461429Y-132687143D01*
X135318572Y-132758571D01*
X134890000Y-132758571D01*
X134747143Y-132687143D01*
X134675715Y-132615714D01*
X136318571Y-132758571D02*
X136604286Y-132758571D01*
X136747143Y-132687143D01*
X136818571Y-132615714D01*
X136961429Y-132401429D01*
X137032857Y-132115714D01*
X137032857Y-131544286D01*
X136961429Y-131401429D01*
X136890000Y-131330000D01*
X136747143Y-131258571D01*
X136461429Y-131258571D01*
X136318571Y-131330000D01*
X136247143Y-131401429D01*
X136175714Y-131544286D01*
X136175714Y-131901429D01*
X136247143Y-132044286D01*
X136318571Y-132115714D01*
X136461429Y-132187143D01*
X136747143Y-132187143D01*
X136890000Y-132115714D01*
X136961429Y-132044286D01*
X137032857Y-131901429D01*
X148161429Y-83141429D02*
X148232858Y-83070000D01*
X148375715Y-82998571D01*
X148732858Y-82998571D01*
X148875715Y-83070000D01*
X148947144Y-83141429D01*
X149018572Y-83284286D01*
X149018572Y-83427143D01*
X148947144Y-83641429D01*
X148090001Y-84498571D01*
X149018572Y-84498571D01*
X136318572Y-84498571D02*
X135461429Y-84498571D01*
X135890001Y-84498571D02*
X135890001Y-82998571D01*
X135747144Y-83212857D01*
X135604286Y-83355714D01*
X135461429Y-83427143D01*
D12*
X132080000Y-123444000D02*
X132334000Y-123190000D01*
X134366000Y-123190000D02*
X134620000Y-123444000D01*
X134620000Y-123444000D02*
X134620000Y-125476000D01*
X134620000Y-128016000D02*
X134366000Y-128270000D01*
X132080000Y-125476000D02*
X132080000Y-123444000D01*
X132334000Y-128270000D02*
X132080000Y-128016000D01*
X134620000Y-125984000D02*
X134620000Y-128016000D01*
X134366000Y-125730000D02*
X134620000Y-125984000D01*
X132080000Y-128016000D02*
X132080000Y-125984000D01*
X132334000Y-125730000D02*
X132080000Y-125476000D01*
X132080000Y-125984000D02*
X132334000Y-125730000D01*
X134620000Y-125476000D02*
X134366000Y-125730000D01*
X134620000Y-128016000D02*
X134366000Y-128270000D01*
X132334000Y-128270000D02*
X132080000Y-128016000D01*
X132080000Y-128016000D02*
X132080000Y-125984000D01*
X134620000Y-125984000D02*
X134620000Y-128016000D01*
X134366000Y-125730000D02*
X134620000Y-125984000D01*
X132080000Y-125984000D02*
X132334000Y-125730000D01*
X132080000Y-131064000D02*
X132334000Y-130810000D01*
X134366000Y-130810000D02*
X134620000Y-131064000D01*
X134620000Y-131064000D02*
X134620000Y-133096000D01*
X132080000Y-133096000D02*
X132080000Y-131064000D01*
X132334000Y-133350000D02*
X132080000Y-133096000D01*
X134620000Y-133096000D02*
X134366000Y-133350000D01*
X134620000Y-130556000D02*
X134366000Y-130810000D01*
X132080000Y-131064000D02*
X132334000Y-130810000D01*
X132334000Y-130810000D02*
X132080000Y-130556000D01*
X132080000Y-133096000D02*
X132080000Y-131064000D01*
X134366000Y-130810000D02*
X134620000Y-131064000D01*
X134620000Y-131064000D02*
X134620000Y-133096000D01*
X134366000Y-133350000D02*
X132334000Y-133350000D01*
X132334000Y-133350000D02*
X132080000Y-133096000D01*
X132080000Y-130556000D02*
X132080000Y-128524000D01*
X134620000Y-133096000D02*
X134366000Y-133350000D01*
X134620000Y-128524000D02*
X134620000Y-130556000D01*
X134366000Y-128270000D02*
X134620000Y-128524000D01*
X132080000Y-128524000D02*
X132334000Y-128270000D01*
X132080000Y-118364000D02*
X132334000Y-118110000D01*
X134366000Y-118110000D02*
X134620000Y-118364000D01*
X134620000Y-118364000D02*
X134620000Y-120396000D01*
X134620000Y-122936000D02*
X134366000Y-123190000D01*
X132080000Y-120396000D02*
X132080000Y-118364000D01*
X132334000Y-123190000D02*
X132080000Y-122936000D01*
X134620000Y-120904000D02*
X134620000Y-122936000D01*
X134366000Y-120650000D02*
X134620000Y-120904000D01*
X132080000Y-122936000D02*
X132080000Y-120904000D01*
X132334000Y-120650000D02*
X132080000Y-120396000D01*
X132080000Y-120904000D02*
X132334000Y-120650000D01*
X134620000Y-120396000D02*
X134366000Y-120650000D01*
X134620000Y-122936000D02*
X134366000Y-123190000D01*
X132334000Y-123190000D02*
X132080000Y-122936000D01*
X132080000Y-122936000D02*
X132080000Y-120904000D01*
X134620000Y-120904000D02*
X134620000Y-122936000D01*
X134366000Y-120650000D02*
X134620000Y-120904000D01*
X132080000Y-120904000D02*
X132334000Y-120650000D01*
X132080000Y-115824000D02*
X132334000Y-115570000D01*
X134366000Y-115570000D02*
X134620000Y-115824000D01*
X134620000Y-115824000D02*
X134620000Y-117856000D01*
X132080000Y-117856000D02*
X132080000Y-115824000D01*
X132334000Y-118110000D02*
X132080000Y-117856000D01*
X134620000Y-117856000D02*
X134366000Y-118110000D01*
X134620000Y-115316000D02*
X134366000Y-115570000D01*
X132080000Y-115824000D02*
X132334000Y-115570000D01*
X132334000Y-115570000D02*
X132080000Y-115316000D01*
X132080000Y-117856000D02*
X132080000Y-115824000D01*
X134366000Y-115570000D02*
X134620000Y-115824000D01*
X134620000Y-115824000D02*
X134620000Y-117856000D01*
X132334000Y-118110000D02*
X132080000Y-117856000D01*
X132080000Y-115316000D02*
X132080000Y-113284000D01*
X134620000Y-117856000D02*
X134366000Y-118110000D01*
X134620000Y-113284000D02*
X134620000Y-115316000D01*
X134366000Y-113030000D02*
X134620000Y-113284000D01*
X132080000Y-113284000D02*
X132334000Y-113030000D01*
X132080000Y-108204000D02*
X132334000Y-107950000D01*
X134366000Y-107950000D02*
X134620000Y-108204000D01*
X134620000Y-108204000D02*
X134620000Y-110236000D01*
X134620000Y-112776000D02*
X134366000Y-113030000D01*
X132080000Y-110236000D02*
X132080000Y-108204000D01*
X132334000Y-113030000D02*
X132080000Y-112776000D01*
X134620000Y-110744000D02*
X134620000Y-112776000D01*
X134366000Y-110490000D02*
X134620000Y-110744000D01*
X132080000Y-112776000D02*
X132080000Y-110744000D01*
X132334000Y-110490000D02*
X132080000Y-110236000D01*
X132080000Y-110744000D02*
X132334000Y-110490000D01*
X134620000Y-110236000D02*
X134366000Y-110490000D01*
X134620000Y-112776000D02*
X134366000Y-113030000D01*
X132334000Y-113030000D02*
X132080000Y-112776000D01*
X132080000Y-112776000D02*
X132080000Y-110744000D01*
X134620000Y-110744000D02*
X134620000Y-112776000D01*
X134366000Y-110490000D02*
X134620000Y-110744000D01*
X132080000Y-110744000D02*
X132334000Y-110490000D01*
X132080000Y-105664000D02*
X132334000Y-105410000D01*
X134366000Y-105410000D02*
X134620000Y-105664000D01*
X134620000Y-105664000D02*
X134620000Y-107696000D01*
X132080000Y-107696000D02*
X132080000Y-105664000D01*
X132334000Y-107950000D02*
X132080000Y-107696000D01*
X134620000Y-107696000D02*
X134366000Y-107950000D01*
X134620000Y-105156000D02*
X134366000Y-105410000D01*
X132080000Y-105664000D02*
X132334000Y-105410000D01*
X132334000Y-105410000D02*
X132080000Y-105156000D01*
X132080000Y-107696000D02*
X132080000Y-105664000D01*
X134366000Y-105410000D02*
X134620000Y-105664000D01*
X134620000Y-105664000D02*
X134620000Y-107696000D01*
X132334000Y-107950000D02*
X132080000Y-107696000D01*
X132080000Y-105156000D02*
X132080000Y-103124000D01*
X134620000Y-107696000D02*
X134366000Y-107950000D01*
X134620000Y-103124000D02*
X134620000Y-105156000D01*
X134366000Y-102870000D02*
X134620000Y-103124000D01*
X132080000Y-103124000D02*
X132334000Y-102870000D01*
X132080000Y-98044000D02*
X132334000Y-97790000D01*
X134366000Y-97790000D02*
X134620000Y-98044000D01*
X134620000Y-98044000D02*
X134620000Y-100076000D01*
X134620000Y-102616000D02*
X134366000Y-102870000D01*
X132080000Y-100076000D02*
X132080000Y-98044000D01*
X132334000Y-102870000D02*
X132080000Y-102616000D01*
X134620000Y-100584000D02*
X134620000Y-102616000D01*
X134366000Y-100330000D02*
X134620000Y-100584000D01*
X132080000Y-102616000D02*
X132080000Y-100584000D01*
X132334000Y-100330000D02*
X132080000Y-100076000D01*
X132080000Y-100584000D02*
X132334000Y-100330000D01*
X134620000Y-100076000D02*
X134366000Y-100330000D01*
X134620000Y-102616000D02*
X134366000Y-102870000D01*
X132334000Y-102870000D02*
X132080000Y-102616000D01*
X132080000Y-102616000D02*
X132080000Y-100584000D01*
X134620000Y-100584000D02*
X134620000Y-102616000D01*
X134366000Y-100330000D02*
X134620000Y-100584000D01*
X132080000Y-100584000D02*
X132334000Y-100330000D01*
X132080000Y-95504000D02*
X132334000Y-95250000D01*
X134366000Y-95250000D02*
X134620000Y-95504000D01*
X134620000Y-95504000D02*
X134620000Y-97536000D01*
X132080000Y-97536000D02*
X132080000Y-95504000D01*
X132334000Y-97790000D02*
X132080000Y-97536000D01*
X134620000Y-97536000D02*
X134366000Y-97790000D01*
X134620000Y-94996000D02*
X134366000Y-95250000D01*
X132080000Y-95504000D02*
X132334000Y-95250000D01*
X132334000Y-95250000D02*
X132080000Y-94996000D01*
X132080000Y-97536000D02*
X132080000Y-95504000D01*
X134366000Y-95250000D02*
X134620000Y-95504000D01*
X134620000Y-95504000D02*
X134620000Y-97536000D01*
X132334000Y-97790000D02*
X132080000Y-97536000D01*
X132080000Y-90424000D02*
X132334000Y-90170000D01*
X132080000Y-94996000D02*
X132080000Y-92964000D01*
X134620000Y-97536000D02*
X134366000Y-97790000D01*
X134620000Y-92964000D02*
X134620000Y-94996000D01*
X134366000Y-92710000D02*
X134620000Y-92964000D01*
X134620000Y-82550000D02*
X134620000Y-82804000D01*
X134620000Y-82804000D02*
X134620000Y-84836000D01*
X134620000Y-84836000D02*
X134366000Y-85090000D01*
X134366000Y-85090000D02*
X134620000Y-85344000D01*
X134620000Y-85344000D02*
X134620000Y-87376000D01*
X134620000Y-87376000D02*
X134366000Y-87630000D01*
X134366000Y-87630000D02*
X134620000Y-87884000D01*
X134620000Y-87884000D02*
X134620000Y-89916000D01*
X134620000Y-89916000D02*
X134366000Y-90170000D01*
X134366000Y-90170000D02*
X134620000Y-90424000D01*
X134620000Y-90424000D02*
X134620000Y-92456000D01*
X134620000Y-92456000D02*
X134366000Y-92710000D01*
X132334000Y-92710000D02*
X132080000Y-92456000D01*
X132080000Y-92456000D02*
X132080000Y-90424000D01*
X132080000Y-92964000D02*
X132334000Y-92710000D01*
X132334000Y-90170000D02*
X132080000Y-89916000D01*
X132080000Y-89916000D02*
X132080000Y-87884000D01*
X134366000Y-82550000D02*
X134620000Y-82804000D01*
X132080000Y-82804000D02*
X132334000Y-82550000D01*
X132080000Y-83058000D02*
X132080000Y-82550000D01*
X132080000Y-87376000D02*
X132080000Y-85344000D01*
X132080000Y-85344000D02*
X132334000Y-85090000D01*
X132334000Y-85090000D02*
X132080000Y-84836000D01*
X132080000Y-84836000D02*
X132080000Y-83058000D01*
X132080000Y-87376000D02*
X132334000Y-87630000D01*
X132334000Y-87630000D02*
X132080000Y-87884000D01*
X134620000Y-82550000D02*
X132080000Y-82550000D01*
D13*
X140180000Y-88150000D02*
X140180000Y-87890000D01*
X140180000Y-87890000D02*
X144300000Y-87890000D01*
X144300000Y-87890000D02*
X144300000Y-88150000D01*
X140180000Y-127750000D02*
X140180000Y-128010000D01*
X140180000Y-128010000D02*
X144300000Y-128010000D01*
X144300000Y-128010000D02*
X144300000Y-127750000D01*
X137740000Y-88150000D02*
X140180000Y-88150000D01*
D12*
X149860000Y-123444000D02*
X150114000Y-123190000D01*
X152146000Y-123190000D02*
X152400000Y-123444000D01*
X152400000Y-123444000D02*
X152400000Y-125476000D01*
X152400000Y-128016000D02*
X152146000Y-128270000D01*
X149860000Y-125476000D02*
X149860000Y-123444000D01*
X150114000Y-128270000D02*
X149860000Y-128016000D01*
X152400000Y-125984000D02*
X152400000Y-128016000D01*
X152146000Y-125730000D02*
X152400000Y-125984000D01*
X149860000Y-128016000D02*
X149860000Y-125984000D01*
X150114000Y-125730000D02*
X149860000Y-125476000D01*
X149860000Y-125984000D02*
X150114000Y-125730000D01*
X152400000Y-125476000D02*
X152146000Y-125730000D01*
X152400000Y-128016000D02*
X152146000Y-128270000D01*
X150114000Y-128270000D02*
X149860000Y-128016000D01*
X149860000Y-128016000D02*
X149860000Y-125984000D01*
X152400000Y-125984000D02*
X152400000Y-128016000D01*
X152146000Y-125730000D02*
X152400000Y-125984000D01*
X149860000Y-125984000D02*
X150114000Y-125730000D01*
X149860000Y-131064000D02*
X150114000Y-130810000D01*
X152146000Y-130810000D02*
X152400000Y-131064000D01*
X152400000Y-131064000D02*
X152400000Y-133096000D01*
X149860000Y-133096000D02*
X149860000Y-131064000D01*
X150114000Y-133350000D02*
X149860000Y-133096000D01*
X152400000Y-133096000D02*
X152146000Y-133350000D01*
X152400000Y-130556000D02*
X152146000Y-130810000D01*
X149860000Y-131064000D02*
X150114000Y-130810000D01*
X150114000Y-130810000D02*
X149860000Y-130556000D01*
X149860000Y-133096000D02*
X149860000Y-131064000D01*
X152146000Y-130810000D02*
X152400000Y-131064000D01*
X152400000Y-131064000D02*
X152400000Y-133096000D01*
X152146000Y-133350000D02*
X150114000Y-133350000D01*
X150114000Y-133350000D02*
X149860000Y-133096000D01*
X149860000Y-130556000D02*
X149860000Y-128524000D01*
X152400000Y-133096000D02*
X152146000Y-133350000D01*
X152400000Y-128524000D02*
X152400000Y-130556000D01*
X152146000Y-128270000D02*
X152400000Y-128524000D01*
X149860000Y-128524000D02*
X150114000Y-128270000D01*
X149860000Y-118364000D02*
X150114000Y-118110000D01*
X152146000Y-118110000D02*
X152400000Y-118364000D01*
X152400000Y-118364000D02*
X152400000Y-120396000D01*
X152400000Y-122936000D02*
X152146000Y-123190000D01*
X149860000Y-120396000D02*
X149860000Y-118364000D01*
X150114000Y-123190000D02*
X149860000Y-122936000D01*
X152400000Y-120904000D02*
X152400000Y-122936000D01*
X152146000Y-120650000D02*
X152400000Y-120904000D01*
X149860000Y-122936000D02*
X149860000Y-120904000D01*
X150114000Y-120650000D02*
X149860000Y-120396000D01*
X149860000Y-120904000D02*
X150114000Y-120650000D01*
X152400000Y-120396000D02*
X152146000Y-120650000D01*
X152400000Y-122936000D02*
X152146000Y-123190000D01*
X150114000Y-123190000D02*
X149860000Y-122936000D01*
X149860000Y-122936000D02*
X149860000Y-120904000D01*
X152400000Y-120904000D02*
X152400000Y-122936000D01*
X152146000Y-120650000D02*
X152400000Y-120904000D01*
X149860000Y-120904000D02*
X150114000Y-120650000D01*
X149860000Y-115824000D02*
X150114000Y-115570000D01*
X152146000Y-115570000D02*
X152400000Y-115824000D01*
X152400000Y-115824000D02*
X152400000Y-117856000D01*
X149860000Y-117856000D02*
X149860000Y-115824000D01*
X150114000Y-118110000D02*
X149860000Y-117856000D01*
X152400000Y-117856000D02*
X152146000Y-118110000D01*
X152400000Y-115316000D02*
X152146000Y-115570000D01*
X149860000Y-115824000D02*
X150114000Y-115570000D01*
X150114000Y-115570000D02*
X149860000Y-115316000D01*
X149860000Y-117856000D02*
X149860000Y-115824000D01*
X152146000Y-115570000D02*
X152400000Y-115824000D01*
X152400000Y-115824000D02*
X152400000Y-117856000D01*
X150114000Y-118110000D02*
X149860000Y-117856000D01*
X149860000Y-115316000D02*
X149860000Y-113284000D01*
X152400000Y-117856000D02*
X152146000Y-118110000D01*
X152400000Y-113284000D02*
X152400000Y-115316000D01*
X152146000Y-113030000D02*
X152400000Y-113284000D01*
X149860000Y-113284000D02*
X150114000Y-113030000D01*
X149860000Y-108204000D02*
X150114000Y-107950000D01*
X152146000Y-107950000D02*
X152400000Y-108204000D01*
X152400000Y-108204000D02*
X152400000Y-110236000D01*
X152400000Y-112776000D02*
X152146000Y-113030000D01*
X149860000Y-110236000D02*
X149860000Y-108204000D01*
X150114000Y-113030000D02*
X149860000Y-112776000D01*
X152400000Y-110744000D02*
X152400000Y-112776000D01*
X152146000Y-110490000D02*
X152400000Y-110744000D01*
X149860000Y-112776000D02*
X149860000Y-110744000D01*
X150114000Y-110490000D02*
X149860000Y-110236000D01*
X149860000Y-110744000D02*
X150114000Y-110490000D01*
X152400000Y-110236000D02*
X152146000Y-110490000D01*
X152400000Y-112776000D02*
X152146000Y-113030000D01*
X150114000Y-113030000D02*
X149860000Y-112776000D01*
X149860000Y-112776000D02*
X149860000Y-110744000D01*
X152400000Y-110744000D02*
X152400000Y-112776000D01*
X152146000Y-110490000D02*
X152400000Y-110744000D01*
X149860000Y-110744000D02*
X150114000Y-110490000D01*
X149860000Y-105664000D02*
X150114000Y-105410000D01*
X152146000Y-105410000D02*
X152400000Y-105664000D01*
X152400000Y-105664000D02*
X152400000Y-107696000D01*
X149860000Y-107696000D02*
X149860000Y-105664000D01*
X150114000Y-107950000D02*
X149860000Y-107696000D01*
X152400000Y-107696000D02*
X152146000Y-107950000D01*
X152400000Y-105156000D02*
X152146000Y-105410000D01*
X149860000Y-105664000D02*
X150114000Y-105410000D01*
X150114000Y-105410000D02*
X149860000Y-105156000D01*
X149860000Y-107696000D02*
X149860000Y-105664000D01*
X152146000Y-105410000D02*
X152400000Y-105664000D01*
X152400000Y-105664000D02*
X152400000Y-107696000D01*
X150114000Y-107950000D02*
X149860000Y-107696000D01*
X149860000Y-105156000D02*
X149860000Y-103124000D01*
X152400000Y-107696000D02*
X152146000Y-107950000D01*
X152400000Y-103124000D02*
X152400000Y-105156000D01*
X152146000Y-102870000D02*
X152400000Y-103124000D01*
X149860000Y-103124000D02*
X150114000Y-102870000D01*
X149860000Y-98044000D02*
X150114000Y-97790000D01*
X152146000Y-97790000D02*
X152400000Y-98044000D01*
X152400000Y-98044000D02*
X152400000Y-100076000D01*
X152400000Y-102616000D02*
X152146000Y-102870000D01*
X149860000Y-100076000D02*
X149860000Y-98044000D01*
X150114000Y-102870000D02*
X149860000Y-102616000D01*
X152400000Y-100584000D02*
X152400000Y-102616000D01*
X152146000Y-100330000D02*
X152400000Y-100584000D01*
X149860000Y-102616000D02*
X149860000Y-100584000D01*
X150114000Y-100330000D02*
X149860000Y-100076000D01*
X149860000Y-100584000D02*
X150114000Y-100330000D01*
X152400000Y-100076000D02*
X152146000Y-100330000D01*
X152400000Y-102616000D02*
X152146000Y-102870000D01*
X150114000Y-102870000D02*
X149860000Y-102616000D01*
X149860000Y-102616000D02*
X149860000Y-100584000D01*
X152400000Y-100584000D02*
X152400000Y-102616000D01*
X152146000Y-100330000D02*
X152400000Y-100584000D01*
X149860000Y-100584000D02*
X150114000Y-100330000D01*
X149860000Y-95504000D02*
X150114000Y-95250000D01*
X152146000Y-95250000D02*
X152400000Y-95504000D01*
X152400000Y-95504000D02*
X152400000Y-97536000D01*
X149860000Y-97536000D02*
X149860000Y-95504000D01*
X150114000Y-97790000D02*
X149860000Y-97536000D01*
X152400000Y-97536000D02*
X152146000Y-97790000D01*
X152400000Y-94996000D02*
X152146000Y-95250000D01*
X149860000Y-95504000D02*
X150114000Y-95250000D01*
X150114000Y-95250000D02*
X149860000Y-94996000D01*
X149860000Y-97536000D02*
X149860000Y-95504000D01*
X152146000Y-95250000D02*
X152400000Y-95504000D01*
X152400000Y-95504000D02*
X152400000Y-97536000D01*
X150114000Y-97790000D02*
X149860000Y-97536000D01*
X149860000Y-90424000D02*
X150114000Y-90170000D01*
X149860000Y-94996000D02*
X149860000Y-92964000D01*
X152400000Y-97536000D02*
X152146000Y-97790000D01*
X152400000Y-92964000D02*
X152400000Y-94996000D01*
X152146000Y-92710000D02*
X152400000Y-92964000D01*
X152400000Y-82550000D02*
X152400000Y-82804000D01*
X152400000Y-82804000D02*
X152400000Y-84836000D01*
X152400000Y-84836000D02*
X152146000Y-85090000D01*
X152146000Y-85090000D02*
X152400000Y-85344000D01*
X152400000Y-85344000D02*
X152400000Y-87376000D01*
X152400000Y-87376000D02*
X152146000Y-87630000D01*
X152146000Y-87630000D02*
X152400000Y-87884000D01*
X152400000Y-87884000D02*
X152400000Y-89916000D01*
X152400000Y-89916000D02*
X152146000Y-90170000D01*
X152146000Y-90170000D02*
X152400000Y-90424000D01*
X152400000Y-90424000D02*
X152400000Y-92456000D01*
X152400000Y-92456000D02*
X152146000Y-92710000D01*
X150114000Y-92710000D02*
X149860000Y-92456000D01*
X149860000Y-92456000D02*
X149860000Y-90424000D01*
X149860000Y-92964000D02*
X150114000Y-92710000D01*
X150114000Y-90170000D02*
X149860000Y-89916000D01*
X149860000Y-89916000D02*
X149860000Y-87884000D01*
X152146000Y-82550000D02*
X152400000Y-82804000D01*
X149860000Y-82804000D02*
X150114000Y-82550000D01*
X149860000Y-83058000D02*
X149860000Y-82550000D01*
X149860000Y-87376000D02*
X149860000Y-85344000D01*
X149860000Y-85344000D02*
X150114000Y-85090000D01*
X150114000Y-85090000D02*
X149860000Y-84836000D01*
X149860000Y-84836000D02*
X149860000Y-83058000D01*
X149860000Y-87376000D02*
X150114000Y-87630000D01*
X150114000Y-87630000D02*
X149860000Y-87884000D01*
X152400000Y-82550000D02*
X149860000Y-82550000D01*
X132654524Y-81703333D02*
X133561667Y-81703333D01*
X133743095Y-81763809D01*
X133864048Y-81884761D01*
X133924524Y-82066190D01*
X133924524Y-82187142D01*
X132654524Y-81219523D02*
X132654524Y-80433333D01*
X133138333Y-80856666D01*
X133138333Y-80675238D01*
X133198810Y-80554285D01*
X133259286Y-80493809D01*
X133380238Y-80433333D01*
X133682619Y-80433333D01*
X133803571Y-80493809D01*
X133864048Y-80554285D01*
X133924524Y-80675238D01*
X133924524Y-81038095D01*
X133864048Y-81159047D01*
X133803571Y-81219523D01*
D14*
X141906667Y-86342381D02*
X141906667Y-87056667D01*
X141859047Y-87199524D01*
X141763809Y-87294762D01*
X141620952Y-87342381D01*
X141525714Y-87342381D01*
X142906667Y-87342381D02*
X142335238Y-87342381D01*
X142620952Y-87342381D02*
X142620952Y-86342381D01*
X142525714Y-86485238D01*
X142430476Y-86580476D01*
X142335238Y-86628095D01*
D12*
X150434524Y-81703333D02*
X151341667Y-81703333D01*
X151523095Y-81763809D01*
X151644048Y-81884761D01*
X151704524Y-82066190D01*
X151704524Y-82187142D01*
X150555476Y-81159047D02*
X150495000Y-81098571D01*
X150434524Y-80977619D01*
X150434524Y-80675238D01*
X150495000Y-80554285D01*
X150555476Y-80493809D01*
X150676429Y-80433333D01*
X150797381Y-80433333D01*
X150978810Y-80493809D01*
X151704524Y-81219523D01*
X151704524Y-80433333D01*
M02*
